<?xml version="1.0" encoding="iso-8859-1"?>
<!-- Uploaded to: SVG Repo, www.svgrepo.com, Generator: SVG Repo Mixer Tools -->
<svg fill="#000000" height="24px" width="24px" version="1.1" id="Layer_1" xmlns="http://www.w3.org/2000/svg" xmlns:xlink="http://www.w3.org/1999/xlink" 
	 viewBox="0 0 512 512" xml:space="preserve">
<g>
	<g>
		<path d="M486.4,0c-14.114,0-25.6,11.486-25.6,25.6v460.8c0,14.114,11.486,25.6,25.6,25.6s25.6-11.486,25.6-25.6V25.6
			C512,11.486,500.514,0,486.4,0z M494.933,486.4c0,4.71-3.823,8.533-8.533,8.533s-8.533-3.823-8.533-8.533V25.6
			c0-4.71,3.823-8.533,8.533-8.533s8.533,3.823,8.533,8.533V486.4z"/>
	</g>
</g>
<g>
	<g>
		<path d="M418.133,76.8H247.467c-4.719,0-8.533,3.814-8.533,8.533V204.8c0,4.719,3.814,8.533,8.533,8.533h170.667
			c4.719,0,8.533-3.814,8.533-8.533V85.333C426.667,80.614,422.852,76.8,418.133,76.8z M409.6,196.267H256v-102.4h153.6V196.267z"/>
	</g>
</g>
<g>
	<g>
		<path d="M418.133,247.467H8.533C3.814,247.467,0,251.281,0,256v162.133c0,4.719,3.814,8.533,8.533,8.533h409.6
			c4.719,0,8.533-3.814,8.533-8.533V256C426.667,251.281,422.852,247.467,418.133,247.467z M409.6,409.6H17.067V264.533H409.6V409.6
			z"/>
	</g>
</g>
</svg>