<?xml version="1.0" encoding="utf-8"?>
<!-- Generator: Adobe Illustrator 27.2.0, SVG Export Plug-In . SVG Version: 6.00 Build 0)  -->
<svg version="1.1" id="Layer_1" xmlns="http://www.w3.org/2000/svg" xmlns:xlink="http://www.w3.org/1999/xlink" x="0px" y="0px"
	 viewBox="0 0 445.7 92.6" style="enable-background:new 0 0 445.7 92.6;" xml:space="preserve">
<style type="text/css">
	.st0{fill:#FFFFFF;}
	.st1{fill-rule:evenodd;clip-rule:evenodd;fill:#FFFFFF;}
</style>
<g>
	<path class="st0" d="M88.6,14.9c0-2,0.7-3.6,2.1-5c1.4-1.4,3.1-2.1,5.1-2.1s3.7,0.7,5.1,2.1s2.1,3.1,2.1,5s-0.7,3.7-2.1,5.1
		s-3.1,2.1-5.1,2.1s-3.7-0.7-5.1-2.1S88.6,16.9,88.6,14.9z"/>
	<path class="st1" d="M2.9,53.4L2.9,53.4c0-16.9,13.8-30.7,30.7-30.7h16.9c-5.4,4-9.7,9.3-12.4,15.5h-4.5c-5.5,0-10.3,3-13,7.4h15.1
		c-0.5,2.5-0.8,5.1-0.8,7.8s0.3,5.3,0.8,7.8H20.6c2.6,4.4,7.5,7.4,13,7.4h4.5c2.7,6.2,7,11.6,12.4,15.5H33.6
		C16.7,84,2.9,70.2,2.9,53.4"/>
	<path class="st0" d="M94.1,31.7c-5.6-5.5-13.2-9-21.7-9s-16.1,3.4-21.7,9c-5.5,5.5-9,13.2-9,21.7C41.7,70.3,55.5,84,72.4,84h0.9
		V69.2h-0.9c-8.7,0-15.8-7.1-15.8-15.8s7.1-15.8,15.8-15.8s15.8,7.1,15.8,15.8V84h14.9V53.4C103.1,44.9,99.7,37.2,94.1,31.7
		L94.1,31.7z"/>
</g>
<g>
	<path class="st0" d="M146.1,38c3.2,0,6.5,0.8,10,2.3s6.4,4.1,8.8,7.7c2.6,4,4,8.3,4,12.9c0,1.2-0.1,2.5-0.2,3.6l-0.2-0.1v0.1
		l-35,0.9c0.7,1.9,1.7,3.5,3.1,4.9c1.4,1.4,2.9,2.4,4.7,3.1c1.5,0.6,3.1,0.8,4.7,0.8c1.9,0,3.8-0.4,5.5-1.1s3.3-1.8,4.5-3.3l9.2,3.6
		c-2.1,3.2-4.9,5.8-8.3,7.6c-3.4,1.9-7.1,2.8-11,2.8c-3.3,0-6.6-0.8-10-2.3c-3.4-1.6-6.3-4.1-8.8-7.7c-2.7-4-4.1-8.3-4.1-12.9
		c0-2.7,0.5-5.4,1.5-8.1c1.7-4.4,4.5-8,8.5-10.7C137.1,39.4,141.4,38,146.1,38L146.1,38z M158.5,56.1c-0.6-1.8-1.6-3.3-2.9-4.6
		c-1.3-1.3-2.9-2.3-4.7-3c-1.5-0.6-3.1-0.8-4.7-0.8c-2.8,0-5.3,0.8-7.6,2.3s-4,3.6-5,6.3l-0.2,0.5L158.5,56.1L158.5,56.1z"/>
	<path class="st0" d="M194,73.5c1.4-0.6,2.2-1.5,2.5-2.8c0.1-0.4,0.2-0.9,0.2-1.3c0-1.1-0.7-2-2.1-2.7c-0.4-0.3-2.4-0.8-5.9-1.7
		l-2.8-0.7c-4.3-1.2-7.5-2.4-9.4-3.5s-3.3-2.5-4.2-4.3c-0.6-1.1-0.9-2.3-0.9-3.7s0.2-2.6,0.6-3.8c0.9-2.7,1.9-4.7,3.1-6.3
		c1.2-1.5,2.9-2.7,5.1-3.4c2-0.7,4.9-1.1,8.5-1.1c4.3,0,9.4,0.5,15.3,1.3l-3.6,8.2l-12-1.1c-3.6-0.1-5.8,0.9-6.4,3l-0.2,0.9
		c0,1,0.8,1.9,2.4,2.5c0.5,0.3,2.9,1.1,7.3,2.2c4.9,1.2,8.5,2.4,10.7,3.5c2.1,1.2,3.6,2.8,4.5,4.7c0.4,0.9,0.6,2,0.6,3.5
		c0,1.4-0.2,2.9-0.7,4.4c-1.2,3.9-3.6,6.9-7.2,8.9c-3.6,2-8.4,2.9-14.2,2.8l-13.1-1.3l4.4-8.7l11.2,1.2
		C190.6,74.4,192.7,74.1,194,73.5L194,73.5z"/>
	<path class="st0" d="M221.1,21.9v13.8h10.1l-2.6,9.8h-7.5v38.2H210V21.9H221.1z"/>
	<path class="st0" d="M233.8,27.9c0-1.7,0.6-3.1,1.8-4.4c1.2-1.2,2.7-1.8,4.4-1.8s3.2,0.6,4.4,1.8s1.8,2.7,1.8,4.4s-0.6,3.2-1.8,4.4
		s-2.7,1.8-4.4,1.8s-3.2-0.6-4.4-1.8S233.8,29.6,233.8,27.9z M234.7,84V38.1h11.1V84H234.7z"/>
	<path class="st0" d="M338.9,83.8c-4.1,0-7.9-1-11.5-3.1s-6.3-4.9-8.3-8.4C317,68.8,316,65,316,60.9s1-7.9,3.1-11.5s4.9-6.3,8.4-8.4
		c3.5-2,7.3-3,11.4-3s7.9,1,11.4,3s6.3,4.7,8.4,8.1c2.1,3.4,3.1,7.2,3.1,11.2l-0.1,23.3h-9.5v-4.1C348.3,82.3,343.8,83.8,338.9,83.8
		L338.9,83.8z M345.6,49.3c-2-1.2-4.3-1.8-6.7-1.8s-4.6,0.6-6.6,1.8c-2.1,1.2-3.7,2.8-4.9,4.9c-1.2,2-1.9,4.2-1.9,6.7
		s0.6,4.6,1.8,6.6c1.2,2.1,2.8,3.7,4.9,4.9c2,1.2,4.2,1.9,6.7,1.9s4.6-0.6,6.6-1.8c2.1-1.2,3.7-2.8,5-4.9c1.2-2,1.8-4.3,1.8-6.7
		s-0.6-4.6-1.8-6.6S347.6,50.5,345.6,49.3L345.6,49.3z"/>
	<path class="st0" d="M365.6,77.8c0-1.7,0.6-3.1,1.8-4.4c1.2-1.2,2.7-1.8,4.4-1.8s3.2,0.6,4.4,1.8s1.8,2.7,1.8,4.4s-0.6,3.2-1.8,4.4
		c-1.2,1.2-2.7,1.8-4.4,1.8s-3.2-0.6-4.4-1.8S365.6,79.5,365.6,77.8z"/>
	<path class="st0" d="M404.2,83.8c-4.1,0-7.9-1-11.5-3.1s-6.3-4.9-8.3-8.4c-2.1-3.4-3.1-7.2-3.1-11.4s1-7.9,3.1-11.5
		s4.9-6.3,8.4-8.4c3.5-2,7.3-3,11.4-3s7.9,1,11.4,3c3.5,2,6.3,4.7,8.4,8.1c2.1,3.4,3.1,7.2,3.1,11.2l-0.1,23.3h-9.5v-4.1
		C413.6,82.3,409.1,83.8,404.2,83.8L404.2,83.8z M410.9,49.3c-2-1.2-4.3-1.8-6.7-1.8s-4.6,0.6-6.6,1.8c-2.1,1.2-3.7,2.8-4.9,4.9
		c-1.2,2-1.9,4.2-1.9,6.7s0.6,4.6,1.8,6.6c1.2,2.1,2.8,3.7,4.9,4.9c2,1.2,4.2,1.9,6.7,1.9s4.6-0.6,6.6-1.8c2.1-1.2,3.7-2.8,5-4.9
		c1.2-2,1.8-4.3,1.8-6.7s-0.6-4.6-1.8-6.6S412.9,50.5,410.9,49.3L410.9,49.3z"/>
	<path class="st0" d="M429.7,27.9c0-1.7,0.6-3.1,1.8-4.4c1.2-1.2,2.7-1.8,4.4-1.8s3.2,0.6,4.4,1.8s1.8,2.7,1.8,4.4s-0.6,3.2-1.8,4.4
		c-1.2,1.2-2.7,1.8-4.4,1.8s-3.2-0.6-4.4-1.8S429.7,29.6,429.7,27.9z"/>
	<rect x="430.6" y="38.1" class="st0" width="11.1" height="45.9"/>
	<path class="st0" d="M310.5,47.7c-1.9-3.1-4.6-5.5-7.9-7.1c-2.3-1.2-4.7-1.9-7.2-2.2c-1-0.2-2-0.2-3.1-0.2c-2.4,0-4.7,0.5-7.1,1.5
		c-1.1,0.5-2.2,1-3.2,1.7c-1-0.7-2.1-1.2-3.2-1.7c-2.4-1-4.7-1.5-7.1-1.5c-1,0-2,0.1-3.1,0.2c-2.5,0.3-4.9,1.1-7.3,2.2
		c-3.3,1.7-6,4.1-7.9,7.1c-1.9,3.1-2.9,6.6-2.9,10.5v25.6h9.5V58.2c0-2.5,0.7-4.6,2-6.3c0.4-0.5,0.9-1,1.4-1.4
		c1.4-1.2,2.9-1.9,4.6-2.4c1.1-0.3,2.4-0.5,3.7-0.5s2.8,0.4,4.5,1.2c0.4,0.2,0.8,0.4,1.2,0.7v34.3h9.3V49.5c0.4-0.3,0.8-0.5,1.2-0.7
		c1.7-0.8,3.2-1.2,4.5-1.2s2.5,0.2,3.7,0.5c1.7,0.5,3.3,1.2,4.6,2.4c0.5,0.4,1,0.9,1.4,1.4c1.4,1.7,2,3.8,2,6.3v25.6h9.5V58.2
		C313.5,54.3,312.5,50.8,310.5,47.7L310.5,47.7z"/>
</g>
</svg>
