<?xml version="1.0" encoding="UTF-8"?>
<svg id="Layer_1" data-name="Layer 1" xmlns="http://www.w3.org/2000/svg" viewBox="0 0 445.7 92.58">
  <defs>
    <style>
      .cls-1 {
        fill: #f68833;
      }

      .cls-2 {
        fill-rule: evenodd;
      }

      .cls-2, .cls-3 {
        fill: #8e8d8d;
      }
    </style>
  </defs>
  <g>
    <path class="cls-3" d="m88.61,15.27c0-1.96.7-3.64,2.11-5.04,1.4-1.4,3.12-2.1,5.14-2.1s3.74.7,5.14,2.1c1.4,1.4,2.1,3.08,2.1,5.04s-.7,3.74-2.1,5.14c-1.4,1.4-3.12,2.1-5.14,2.1s-3.74-.7-5.14-2.1c-1.4-1.4-2.11-3.12-2.11-5.14Z"/>
    <path class="cls-2" d="m2.92,53.78h0c0-16.87,13.8-30.68,30.68-30.68h16.88c-5.39,3.97-9.7,9.32-12.4,15.53h-4.49c-5.5,0-10.34,2.97-12.99,7.38h15.14c-.52,2.51-.79,5.1-.79,7.76s.27,5.26.79,7.76h-15.14c2.65,4.41,7.49,7.38,12.99,7.38h4.49c2.7,6.21,7.01,11.56,12.4,15.53h-16.88c-16.87,0-30.68-13.8-30.68-30.68"/>
    <path class="cls-1" d="m94.11,32.09c-5.55-5.55-13.23-8.99-21.69-8.99s-16.14,3.43-21.69,8.99c-5.55,5.55-8.99,13.23-8.99,21.69,0,16.94,13.74,30.68,30.68,30.68h.91v-14.88h-.91c-8.71,0-15.79-7.09-15.79-15.79s7.09-15.79,15.79-15.79,15.79,7.09,15.79,15.79v30.68h14.88v-30.68c0-8.46-3.43-16.14-8.99-21.69Z"/>
  </g>
  <g>
    <path class="cls-3" d="m146.15,38.43c3.21,0,6.54.78,9.98,2.33,3.44,1.55,6.37,4.1,8.8,7.66,2.65,4,3.98,8.32,3.98,12.94,0,1.24-.08,2.45-.25,3.64l-.17-.08v.08l-35.02.93c.68,1.86,1.69,3.48,3.05,4.86,1.35,1.38,2.93,2.41,4.74,3.09,1.47.56,3.05.85,4.74.85,1.92,0,3.76-.38,5.54-1.14s3.29-1.85,4.53-3.26l9.22,3.55c-2.09,3.22-4.85,5.75-8.29,7.61-3.44,1.86-7.11,2.79-11,2.79-3.27,0-6.61-.78-10.03-2.33-3.41-1.55-6.33-4.13-8.76-7.74-2.71-4-4.06-8.32-4.06-12.94,0-2.71.51-5.41,1.52-8.12,1.69-4.4,4.51-7.95,8.46-10.66,3.95-2.71,8.29-4.06,13.03-4.06Zm12.35,18.1c-.62-1.75-1.59-3.29-2.92-4.61-1.33-1.33-2.89-2.33-4.69-3-1.47-.56-3.05-.85-4.74-.85-2.76,0-5.3.76-7.61,2.28-2.31,1.52-3.98,3.61-4.99,6.26l-.17.51,25.13-.59Z"/>
    <path class="cls-3" d="m194.02,73.92c1.35-.59,2.2-1.54,2.54-2.83.11-.45.17-.87.17-1.27,0-1.13-.71-2.03-2.12-2.71-.45-.28-2.43-.85-5.92-1.69l-2.79-.68c-4.34-1.24-7.49-2.4-9.43-3.47-1.94-1.07-3.34-2.51-4.19-4.31-.56-1.07-.85-2.31-.85-3.72s.2-2.62.59-3.81c.85-2.65,1.89-4.74,3.13-6.26,1.24-1.52,2.93-2.65,5.08-3.38,2.03-.73,4.88-1.1,8.54-1.1,4.29,0,9.39.45,15.31,1.35l-3.55,8.21-12.01-1.1c-3.61-.06-5.75.93-6.43,2.96l-.17.93c0,1.02.82,1.86,2.45,2.54.51.34,2.93,1.07,7.28,2.2,4.91,1.24,8.49,2.42,10.74,3.55,2.14,1.24,3.64,2.79,4.48,4.65.39.85.59,2.03.59,3.55,0,1.41-.23,2.88-.68,4.4-1.19,3.95-3.6,6.92-7.23,8.92-3.64,2-8.36,2.92-14.17,2.75l-13.11-1.35,4.4-8.71,11.25,1.18c2.71.06,4.74-.21,6.09-.8Z"/>
    <path class="cls-3" d="m221.09,22.36v13.79h10.15l-2.62,9.81h-7.53v38.15h-11.08V22.36h11.08Z"/>
    <path class="cls-3" d="m233.78,28.28c0-1.69.61-3.14,1.82-4.36,1.21-1.21,2.69-1.82,4.44-1.82s3.23.61,4.44,1.82c1.21,1.21,1.82,2.66,1.82,4.36s-.61,3.23-1.82,4.44c-1.21,1.21-2.69,1.82-4.44,1.82s-3.23-.61-4.44-1.82c-1.21-1.21-1.82-2.69-1.82-4.44Zm.93,56.17v-45.94h11.08v45.94h-11.08Z"/>
    <path class="cls-3" d="m338.92,84.2c-4.12,0-7.94-1.03-11.46-3.09-3.52-2.06-6.3-4.86-8.33-8.42-2.09-3.44-3.13-7.25-3.13-11.42s1.03-7.94,3.09-11.46c2.06-3.52,4.86-6.33,8.42-8.42,3.5-2.03,7.3-3.05,11.42-3.05s7.85,1,11.38,3,6.33,4.7,8.42,8.08c2.09,3.44,3.13,7.16,3.13,11.17l-.08,23.35h-9.47v-4.06c-4.06,2.88-8.52,4.31-13.37,4.31Zm6.68-34.52c-2.03-1.18-4.26-1.78-6.68-1.78s-4.58.61-6.64,1.82c-2.06,1.21-3.68,2.83-4.86,4.86-1.24,1.97-1.86,4.2-1.86,6.68s.61,4.58,1.82,6.64c1.21,2.06,2.83,3.68,4.86,4.86,1.98,1.24,4.2,1.86,6.68,1.86s4.58-.61,6.64-1.82c2.06-1.21,3.71-2.83,4.95-4.86,1.19-2.03,1.78-4.26,1.78-6.68s-.61-4.58-1.82-6.64-2.83-3.71-4.86-4.95Z"/>
    <path class="cls-3" d="m365.65,78.19c0-1.69.61-3.14,1.82-4.36,1.21-1.21,2.69-1.82,4.44-1.82s3.23.61,4.44,1.82c1.21,1.21,1.82,2.66,1.82,4.36s-.61,3.23-1.82,4.44c-1.21,1.21-2.69,1.82-4.44,1.82s-3.23-.61-4.44-1.82c-1.21-1.21-1.82-2.69-1.82-4.44Z"/>
    <path class="cls-1" d="m404.22,84.2c-4.12,0-7.94-1.03-11.46-3.09-3.52-2.06-6.3-4.86-8.33-8.42-2.09-3.44-3.13-7.25-3.13-11.42s1.03-7.94,3.09-11.46c2.06-3.52,4.86-6.33,8.42-8.42,3.5-2.03,7.3-3.05,11.42-3.05s7.85,1,11.38,3c3.52,2,6.33,4.7,8.42,8.08,2.09,3.44,3.13,7.16,3.13,11.17l-.08,23.35h-9.47v-4.06c-4.06,2.88-8.52,4.31-13.37,4.31Zm6.68-34.52c-2.03-1.18-4.26-1.78-6.68-1.78s-4.58.61-6.64,1.82c-2.06,1.21-3.68,2.83-4.86,4.86-1.24,1.97-1.86,4.2-1.86,6.68s.61,4.58,1.82,6.64c1.21,2.06,2.83,3.68,4.86,4.86,1.98,1.24,4.2,1.86,6.68,1.86s4.58-.61,6.64-1.82c2.06-1.21,3.71-2.83,4.95-4.86,1.19-2.03,1.78-4.26,1.78-6.68s-.61-4.58-1.82-6.64-2.83-3.71-4.86-4.95Z"/>
    <path class="cls-3" d="m429.68,28.28c0-1.69.61-3.14,1.82-4.36,1.21-1.21,2.69-1.82,4.44-1.82s3.23.61,4.44,1.82c1.21,1.21,1.82,2.66,1.82,4.36s-.61,3.23-1.82,4.44c-1.21,1.21-2.69,1.82-4.44,1.82s-3.23-.61-4.44-1.82c-1.21-1.21-1.82-2.69-1.82-4.44Z"/>
    <rect class="cls-1" x="430.61" y="38.52" width="11.08" height="45.94"/>
    <path class="cls-3" d="m310.54,48.12c-1.93-3.08-4.58-5.46-7.91-7.14-2.33-1.17-4.74-1.93-7.24-2.25-1.02-.15-2.05-.22-3.08-.22-2.36,0-4.73.5-7.09,1.48-1.12.47-2.2,1.03-3.21,1.68-1.03-.65-2.1-1.22-3.23-1.68-2.36-.98-4.73-1.48-7.09-1.48-1.03,0-2.05.07-3.06.22-2.51.32-4.93,1.07-7.26,2.25-3.33,1.68-5.98,4.06-7.91,7.14-1.95,3.08-2.93,6.59-2.93,10.54v25.62h9.47v-25.62c0-2.51.67-4.61,2.01-6.31.38-.52.85-1,1.38-1.43,1.35-1.15,2.9-1.93,4.61-2.38,1.15-.32,2.36-.47,3.68-.47s2.78.4,4.48,1.2c.41.21.8.44,1.17.7v34.31h9.34v-34.31c.37-.26.76-.49,1.17-.7,1.7-.8,3.2-1.2,4.48-1.2s2.53.15,3.68.47c1.71.45,3.26,1.23,4.61,2.38.53.43,1,.92,1.38,1.43,1.35,1.7,2.01,3.8,2.01,6.31v25.62h9.47v-25.62c0-3.95-.98-7.46-2.93-10.54Z"/>
  </g>
</svg>