<?xml version="1.0" encoding="utf-8"?>
<!-- Generator: Adobe Illustrator 27.2.0, SVG Export Plug-In . SVG Version: 6.00 Build 0)  -->
<svg version="1.1" id="Layer_1" xmlns="http://www.w3.org/2000/svg" xmlns:xlink="http://www.w3.org/1999/xlink" x="0px" y="0px"
	 viewBox="0 0 16 16" style="enable-background:new 0 0 16 16;" xml:space="preserve">
<style type="text/css">
	.st0{fill:#8E8D8D;}
	.st1{fill-rule:evenodd;clip-rule:evenodd;fill:#8E8D8D;}
	.st2{fill:#F68833;}
</style>
<g>
	<g>
		<g>
			<g>
				<path class="st0" d="M12.92,3.71c0-0.27,0.1-0.5,0.29-0.7c0.19-0.19,0.43-0.29,0.71-0.29c0.28,0,0.52,0.1,0.71,0.29
					c0.19,0.19,0.29,0.43,0.29,0.7c0,0.28-0.1,0.52-0.29,0.71c-0.19,0.19-0.43,0.29-0.71,0.29c-0.28,0-0.52-0.1-0.71-0.29
					C13.02,4.23,12.92,3.99,12.92,3.71z"/>
				<path class="st1" d="M1.08,9.04L1.08,9.04c0-2.33,1.91-4.24,4.24-4.24h2.33C6.91,5.34,6.31,6.08,5.94,6.94H5.32
					c-0.76,0-1.43,0.41-1.8,1.02h2.09C5.54,8.31,5.5,8.67,5.5,9.04c0,0.37,0.04,0.73,0.11,1.07H3.52c0.37,0.61,1.04,1.02,1.8,1.02
					h0.62c0.37,0.86,0.97,1.6,1.71,2.15H5.32C2.98,13.28,1.08,11.37,1.08,9.04"/>
				<path class="st2" d="M13.68,6.04c-0.77-0.77-1.83-1.24-3-1.24c-1.17,0-2.23,0.47-3,1.24c-0.77,0.77-1.24,1.83-1.24,3
					c0,2.34,1.9,4.24,4.24,4.24h0.13v-2.06h-0.13c-1.2,0-2.18-0.98-2.18-2.18c0-1.2,0.98-2.18,2.18-2.18c1.2,0,2.18,0.98,2.18,2.18
					v4.24h2.06V9.04C14.92,7.87,14.45,6.8,13.68,6.04z"/>
			</g>
		</g>
	</g>
</g>
</svg>
